<?xml version="1.0" standalone="no"?>
<!DOCTYPE svg PUBLIC "-//W3C//DTD SVG 20010904//EN"
 "http://www.w3.org/TR/2001/REC-SVG-20010904/DTD/svg10.dtd">
<svg version="1.0" xmlns="http://www.w3.org/2000/svg"
 width="3137.000000pt" height="3137.000000pt" viewBox="0 0 3137.000000 3137.000000"
 preserveAspectRatio="xMidYMid meet">
<metadata>
Created by potrace 1.11, written by Peter Selinger 2001-2013
</metadata>
<g transform="translate(0.000000,3137.000000) scale(0.100000,-0.100000)"
fill="#000000" stroke="none">
<path d="M14770 27928 c-168 -65 -408 -159 -535 -208 -468 -180 -866 -334
-1513 -584 l-662 -256 -1526 0 -1525 0 -432 -412 c-238 -226 -479 -458 -537
-513 -58 -56 -404 -387 -770 -736 -366 -348 -908 -866 -1205 -1149 -297 -283
-882 -841 -1300 -1240 -418 -398 -815 -779 -882 -845 l-121 -120 -12 -285 c-6
-157 -20 -476 -30 -710 -11 -234 -33 -733 -50 -1110 -31 -711 -40 -910 -65
-1465 -8 -181 -19 -436 -25 -565 -5 -129 -14 -332 -20 -450 -25 -555 -52
-1163 -85 -1905 -26 -618 -34 -755 -42 -755 -3 0 -145 36 -317 80 -171 44
-405 104 -521 134 -572 146 -997 255 -1365 350 -223 57 -406 103 -407 102 -2
-1 578 -344 1287 -761 l1290 -759 0 -45 c0 -25 -7 -192 -15 -371 -17 -373 -40
-883 -55 -1242 l-11 -248 662 -1077 c611 -995 1225 -1994 1854 -3018 311 -507
1107 -1803 1720 -2800 l461 -750 155 0 154 0 7 130 c5 72 28 496 52 942 l44
813 -240 627 c-132 346 -322 844 -423 1108 -305 799 -518 1356 -705 1845 -98
256 -243 636 -323 845 -131 344 -397 1039 -696 1821 -61 160 -111 302 -111
314 0 38 225 1579 231 1583 2 2 192 88 422 192 l417 188 197 311 c108 171 296
469 418 661 122 193 331 523 465 735 134 212 252 397 262 412 l19 28 85 -71
c47 -40 86 -70 88 -68 1 2 94 149 205 326 l203 321 152 -73 c190 -91 660 -320
916 -446 143 -70 196 -92 198 -82 2 8 -3 231 -12 496 -9 265 -21 628 -26 807
-6 179 -15 442 -19 585 l-9 259 25 76 c57 171 120 270 170 270 37 0 83 -55
118 -141 l30 -74 5 -2326 5 -2326 1245 -1088 c685 -598 1246 -1089 1247 -1090
1 0 -11 -370 -27 -821 -16 -450 -46 -1255 -65 -1789 -19 -533 -42 -1154 -50
-1380 -8 -225 -19 -534 -25 -685 -5 -151 -17 -459 -25 -685 -8 -225 -22 -599
-30 -830 -8 -231 -19 -539 -25 -685 -10 -265 -21 -566 -40 -1120 -6 -162 -15
-398 -20 -525 -6 -126 -10 -258 -10 -293 l0 -62 1126 2 1126 3 95 230 c52 127
141 343 198 480 57 138 210 509 340 825 407 989 617 1495 619 1497 1 1 56 -18
122 -43 65 -25 520 -196 1009 -381 490 -185 1221 -460 1625 -613 1061 -400
1070 -404 1075 -398 3 3 -28 340 -70 749 -41 409 -88 881 -105 1049 -16 168
-32 324 -35 347 -6 41 -10 45 -443 395 -449 363 -688 556 -968 783 -89 71
-292 236 -453 365 l-291 235 0 535 0 535 106 255 c58 140 126 305 150 366 l45
111 1685 779 c927 429 1706 788 1731 798 l45 19 291 -52 c161 -29 573 -104
917 -166 344 -62 857 -154 1140 -205 283 -51 516 -94 518 -95 1 -1 -85 -227
-192 -501 -453 -1166 -2034 -5226 -2359 -6061 l-234 -603 1052 0 1053 0 39 67
c22 38 276 466 565 953 289 487 671 1131 849 1432 l324 548 252 0 252 0 5 -42
c3 -24 17 -214 31 -423 24 -352 64 -927 100 -1445 8 -118 20 -278 25 -355 5
-77 17 -237 25 -355 34 -488 66 -945 76 -1100 5 -91 12 -175 15 -188 l4 -22
1027 2 1027 3 68 330 c92 450 221 1080 268 1310 22 105 100 489 175 855 75
366 172 841 216 1055 44 215 125 608 179 875 54 267 131 640 170 830 39 190
95 465 125 613 30 147 80 387 110 535 74 365 187 916 236 1152 23 107 43 215
46 240 3 27 -25 251 -72 570 -41 289 -127 885 -191 1325 -63 440 -155 1081
-205 1425 -49 344 -101 702 -114 795 -13 94 -92 640 -175 1214 -82 575 -150
1045 -150 1046 0 1 123 -36 273 -82 149 -45 385 -117 524 -159 238 -73 252
-78 257 -103 12 -55 496 -2970 496 -2982 0 -8 -143 -116 -318 -241 l-318 -226
113 -829 c62 -455 122 -898 133 -983 11 -85 23 -163 26 -174 4 -12 152 323
416 938 l409 956 -36 213 c-20 116 -49 289 -65 382 -16 94 -86 503 -155 910
-69 407 -137 803 -150 880 -13 77 -45 259 -69 405 -25 146 -68 398 -96 560
-28 162 -64 380 -82 484 l-32 188 -753 503 -754 503 -83 113 c-46 63 -251 346
-456 629 -205 283 -484 668 -620 855 -481 663 -889 1226 -1190 1641 l-305 421
-385 93 c-212 51 -551 132 -755 181 -203 49 -577 138 -830 199 -253 61 -649
156 -880 212 -231 55 -640 153 -910 218 -269 65 -798 191 -1174 281 l-684 164
-61 92 -61 92 -275 152 c-724 402 -936 519 -1470 814 -316 175 -647 358 -735
407 l-161 90 -32 181 c-76 430 -152 854 -157 873 -3 16 -315 208 -1202 740
-658 396 -1199 720 -1202 720 -3 1 -143 -52 -311 -118z m3405 -2753 c775 -429
1899 -1051 1995 -1104 l95 -53 233 -346 c128 -191 342 -507 474 -702 132 -195
326 -483 432 -640 372 -550 3450 -5107 3561 -5270 341 -503 405 -599 405 -608
0 -5 -80 -173 -178 -373 -98 -200 -434 -886 -746 -1524 l-567 -1160 -632 -292
c-471 -217 -3146 -1452 -4262 -1968 -44 -20 -305 -140 -580 -267 -275 -127
-505 -236 -512 -242 -6 -6 -36 -72 -66 -146 -30 -74 -157 -382 -282 -685 -125
-302 -305 -739 -400 -970 -95 -231 -244 -591 -330 -800 -86 -209 -188 -454
-225 -545 -37 -91 -186 -451 -330 -800 -144 -349 -340 -824 -435 -1055 -95
-231 -250 -607 -345 -835 -94 -228 -268 -652 -388 -942 l-217 -528 -1069 0
-1068 0 6 148 c3 81 13 336 21 567 8 231 22 605 30 830 8 226 20 534 25 685 5
151 14 397 20 545 5 149 14 396 20 550 5 154 17 467 25 695 8 228 38 1036 65
1795 27 759 57 1574 65 1810 34 932 44 1155 51 1167 4 7 199 306 432 663 234
358 458 700 497 760 177 271 1529 2338 1632 2495 63 96 455 695 870 1330 415
635 1057 1616 1425 2179 l670 1024 -87 471 c-89 482 -153 828 -435 2351 -89
479 -208 1124 -266 1435 -57 311 -107 578 -110 593 l-6 29 34 -18 c18 -9 222
-121 453 -249z m-10460 -7795 c336 -263 614 -485 619 -493 9 -13 -159 -282
-1247 -1997 l-136 -215 -1404 -633 -1403 -633 -1432 842 c-788 463 -1431 843
-1430 845 2 1 122 -28 268 -66 363 -93 818 -209 1580 -405 355 -91 709 -182
787 -201 l142 -36 446 363 c246 200 488 397 538 438 51 41 245 199 433 352
l341 277 60 144 c33 78 219 519 413 978 193 459 360 854 370 878 l19 42 213 0
213 0 610 -480z"/>
</g>
</svg>
